HIERARCHY
ROOT Hips
{
	OFFSET 0.000000 0.000000 0.000000 
	CHANNELS 6 Xposition Yposition Zposition Zrotation Yrotation Xrotation
	JOINT LeftUpLeg
	{
		OFFSET 1.363060 -1.794630 0.839290 
		CHANNELS 3 Zrotation Yrotation Xrotation
		JOINT LeftLeg
		{
			OFFSET 2.448110 -6.726130 0.000000 
			CHANNELS 3 Zrotation Yrotation Xrotation
			JOINT LeftFoot
			{
				OFFSET 2.562200 -7.039590 0.000000 
				CHANNELS 3 Zrotation Yrotation Xrotation
				JOINT LeftToeBase
				{
					OFFSET 0.157640 -0.433110 2.322550 
					CHANNELS 3 Zrotation Yrotation Xrotation
					End Site
					{
						OFFSET 0.000000 0.000000 0.000000 
					}
				}
			}
		}
	}
	JOINT RightUpLeg
	{
		OFFSET -1.305520 -1.794630 0.839290 
		CHANNELS 3 Zrotation Yrotation Xrotation
		JOINT RightLeg
		{
			OFFSET -2.542530 -6.985550 0.000000 
			CHANNELS 3 Zrotation Yrotation Xrotation
			JOINT RightFoot
			{
				OFFSET -2.568260 -7.056230 0.000000 
				CHANNELS 3 Zrotation Yrotation Xrotation
				JOINT RightToeBase
				{
					OFFSET -0.164730 -0.452590 2.363150 
					CHANNELS 3 Zrotation Yrotation Xrotation
					End Site
					{
						OFFSET 0.000000 0.000000 0.000000 
					}
				}
			}
		}
	}
	JOINT Spine
	{
		OFFSET 0.028270 2.035590 -0.193380 
		CHANNELS 3 Zrotation Yrotation Xrotation
		JOINT Spine1
		{
			OFFSET 0.056720 2.048850 -0.042750 
			CHANNELS 3 Zrotation Yrotation Xrotation
			JOINT Neck1
			{
				OFFSET -0.054170 1.746240 0.172020 
				CHANNELS 3 Zrotation Yrotation Xrotation
				JOINT Head
				{
					OFFSET 0.104070 1.761360 -0.123970 
					CHANNELS 3 Zrotation Yrotation Xrotation
					End Site
					{
						OFFSET 0.000000 0.000000 0.000000 
					}
				}
			}
			JOINT LeftArm
			{
				OFFSET 3.362410 1.200890 -0.311210 
				CHANNELS 3 Zrotation Yrotation Xrotation
				JOINT LeftForeArm
				{
					OFFSET 4.983000 -0.000000 -0.000000 
					CHANNELS 3 Zrotation Yrotation Xrotation
					JOINT LeftHand
					{
						OFFSET 3.483560 -0.000000 -0.000000 
						CHANNELS 3 Zrotation Yrotation Xrotation
						JOINT LeftHandIndex1
						{
							OFFSET 0.715260 -0.000000 -0.000000 
							CHANNELS 3 Zrotation Yrotation Xrotation
							End Site
							{
								OFFSET 0.000000 0.000000 0.000000 
							}
						}
					}
				}
			}
			JOINT RightArm
			{
				OFFSET -3.136600 1.374050 -0.404650 
				CHANNELS 3 Zrotation Yrotation Xrotation
				JOINT RightForeArm
				{
					OFFSET -5.241900 -0.000000 -0.000000 
					CHANNELS 3 Zrotation Yrotation Xrotation
					JOINT RightHand
					{
						OFFSET -3.444170 -0.000000 -0.000000 
						CHANNELS 3 Zrotation Yrotation Xrotation
						JOINT RightHandIndex1
						{
							OFFSET -0.622530 -0.000000 -0.000000 
							CHANNELS 3 Zrotation Yrotation Xrotation
							End Site
							{
								OFFSET 0.000000 0.000000 0.000000 
							}
						}
					}
				}
			}
		}
	}
}
MOTION
Frames: 9
Frame Time: 0.041667
9.563225 17.554892 -22.992348 -4.002952 -0.860894 1.979481 -9.093533 0.001907 -9.384358 1.379339 10.324454 27.497561 1.117002 -7.277035 -10.011797 0.019300 0.897000 2.465300 22.969294 -0.951650 -8.021865 -1.371401 -10.045289 26.126517 -1.063469 3.602774 -9.945246 -0.543400 -4.722800 13.119700 1.998931 -1.560028 -3.355943 4.772530 -0.696805 -0.661739 4.734818 -14.345922 10.688030 3.576300 -7.660800 8.476700 -91.373998 3.272990 30.148845 14.222083 -24.929425 -3.208114 0.222297 0.510333 1.763869 -7.125000 0.000000 0.000000 84.832057 -1.894099 20.447386 -12.698394 20.662602 -2.614152 0.392144 -0.151338 -8.699150 7.125000 0.000000 0.000000 
9.558675 17.555398 -22.989618 -4.167439 -0.904937 1.986227 -8.902553 -0.013856 -9.360890 1.379297 10.315030 27.480032 1.114730 -7.248343 -9.978643 0.026900 1.058900 2.911000 23.157905 -1.031079 -8.093270 -1.377456 -10.055500 26.157405 -1.077152 3.683570 -9.993942 -0.509700 -4.576200 12.703800 2.001644 -1.441031 -3.392823 4.678681 -0.638309 -0.767811 4.631361 -14.131877 11.009860 3.505800 -7.560500 8.613800 -91.233016 3.496064 30.561011 14.385914 -25.150488 -3.275613 0.214026 0.533876 1.392250 -7.125000 0.000000 0.000000 84.929695 -2.065931 20.094000 -12.542545 20.440267 -2.556375 0.396450 -0.156762 -8.429280 7.125000 0.000000 0.000000 
9.548967 17.558836 -22.982944 -3.967625 -0.765301 2.042261 -9.079567 -0.104007 -9.374244 1.365061 10.296371 27.420050 1.113879 -7.252126 -9.985456 0.017800 0.861000 2.366500 22.961518 -1.119130 -8.239839 -1.393276 -10.083610 26.252779 -1.078523 3.647331 -10.092597 -0.485900 -4.469600 12.401700 1.991438 -1.481828 -3.443167 4.772211 -0.658553 -0.826447 4.464265 -13.818813 11.350675 3.407300 -7.416800 8.734300 -91.090868 3.764435 30.750663 14.564733 -25.397807 -3.347393 0.198718 0.550293 1.205447 -7.125000 0.000000 0.000000 84.964865 -2.266957 19.929197 -12.390273 20.221096 -2.498924 0.396986 -0.157646 -8.285529 7.125000 0.000000 0.000000 
9.538047 17.554589 -22.978394 -3.762644 -0.562534 2.038530 -9.245230 -0.096991 -9.378460 1.359078 10.286020 27.382627 1.122738 -7.425497 -9.946424 0.013600 0.752600 2.068300 22.789667 -1.146471 -8.243097 -1.402969 -10.103992 26.318916 -1.062751 3.492388 -10.195999 -0.479700 -4.441600 12.322600 2.021119 -1.638582 -3.480218 5.006030 -0.736243 -0.858509 4.364643 -13.430783 11.736238 3.372200 -7.246000 8.937900 -91.159150 3.843669 30.533800 14.595692 -25.433956 -3.353971 0.206661 0.527262 1.203593 -7.125000 0.000000 0.000000 84.822129 -2.339308 20.012900 -12.242421 20.004956 -2.442517 0.398014 -0.152857 -8.230216 7.125000 0.000000 0.000000 
9.529654 17.548724 -22.975765 -3.650443 -0.534507 2.031087 -9.333635 -0.046054 -9.360208 1.353274 10.275629 27.345472 1.126937 -7.510950 -9.926835 0.015800 0.812800 2.233900 22.708025 -1.092000 -8.214107 -1.409552 -10.118666 26.365549 -1.052337 3.410394 -10.220744 -0.478800 -4.437300 12.310200 2.037647 -1.656816 -3.493317 5.140625 -0.748237 -0.816563 4.315022 -13.096012 12.188521 3.357900 -7.097900 9.237900 -91.257046 3.723633 30.400882 14.647699 -25.505721 -3.377142 0.193397 0.544259 1.414799 -7.125000 0.000000 0.000000 84.728989 -2.350956 19.948925 -12.147160 19.859280 -2.405388 0.408880 -0.141086 -8.095268 7.125000 0.000000 0.000000 
9.522576 17.551050 -22.969799 -3.658773 -0.504319 2.074873 -9.303204 -0.119140 -9.357859 1.346705 10.265310 27.316389 1.125403 -7.446036 -9.963900 0.012700 0.728700 2.002700 22.744758 -1.071150 -8.257762 -1.411409 -10.122385 26.379261 -1.048079 3.372385 -10.243468 -0.473800 -4.414500 12.245700 2.042761 -1.616755 -3.515520 5.151043 -0.730654 -0.774124 4.265217 -12.753865 12.631180 3.345400 -6.946300 9.480400 -91.313157 3.650211 30.059364 14.444958 -25.237365 -3.299405 0.193165 0.544233 1.576129 -7.125000 0.000000 0.000000 84.725055 -2.504858 19.798103 -12.055844 19.726584 -2.371359 0.426294 -0.131605 -7.912222 7.125000 0.000000 0.000000 
9.514183 17.553476 -22.961305 -3.834041 -0.356641 2.099408 -9.092311 -0.494825 -9.208501 1.329653 10.244662 27.253148 1.113633 -7.188595 -10.048343 0.009400 0.624900 1.717300 22.989423 -1.038672 -8.255621 -1.413075 -10.129045 26.396783 -1.042404 3.284601 -10.380082 -0.465600 -4.376700 12.139000 2.116655 -1.709170 -3.548848 5.270487 -0.775405 -0.781512 4.188576 -12.266996 12.977360 3.346700 -6.736200 9.593800 -91.488947 3.772375 29.791045 14.520739 -25.341821 -3.326595 0.195298 0.533977 1.861948 -7.125000 0.000000 0.000000 84.553192 -2.670868 19.885095 -11.900338 19.508757 -2.315117 0.435497 -0.126569 -7.864374 7.125000 0.000000 0.000000 
9.504881 17.554690 -22.955238 -3.826659 -0.229536 2.086815 -9.069831 -0.729662 -9.065588 1.313701 10.226231 27.189512 1.106751 -7.062189 -10.095230 0.008500 0.595000 1.635100 23.019885 -1.148494 -8.272880 -1.415470 -10.130890 26.402502 -1.055724 3.375739 -10.381337 -0.478800 -4.437300 12.310400 2.168685 -1.775468 -3.573803 5.451123 -0.807571 -0.801338 4.125335 -11.788991 13.307118 3.346800 -6.527200 9.717200 -91.665781 3.818262 29.596528 14.496972 -25.314214 -3.314408 0.200425 0.520302 2.123050 -7.125000 0.000000 0.000000 84.428861 -2.771742 19.791427 -11.792870 19.358601 -2.276850 0.421013 -0.126489 -7.809010 7.125000 0.000000 0.000000 
9.498409 17.557016 -22.951396 -3.725731 -0.154033 2.070634 -9.141648 -0.660704 -9.060904 1.313372 10.221189 27.172606 1.115928 -7.213276 -10.064556 0.009800 0.637900 1.753100 22.916662 -1.397416 -8.349829 -1.415786 -10.124769 26.386671 -1.072334 3.533637 -10.265802 -0.508600 -4.571400 12.690100 2.161565 -1.716630 -3.577760 5.489842 -0.780425 -0.799490 4.108657 -11.371614 13.660961 3.353200 -6.336800 9.866800 -91.701586 3.730899 29.516783 14.317001 -25.084367 -3.249016 0.201147 0.527679 2.253431 -7.125000 0.000000 0.000000 84.505241 -2.808177 19.271595 -11.706667 19.235690 -2.247332 0.404636 -0.129113 -7.500498 7.125000 0.000000 0.000000 
